# xmcd
#
# Track frame offsets:
#	150
#	21285
#	46807
#	65607
#	94987
#	119487
#	151680
#	171105
#	191512
#	208642
#	245242
#	263915
#	282440
#	297970
#
# Disc length: 4172 seconds
#
# Revision: 3
# Processed by: cddbd v1.5.2PL0 Copyright (c) Steve Scherf et al.
# Submitted via: audiograbber 1.82.02
#
DISCID=d2104a0e
DTITLE=SPECIAL DREAMS - VOLUME 3
DYEAR=1900
DGENRE=R&B
TTITLE0=JOHNNY GUITAR WATSON - LOVE JONES
TTITLE1=CON FUNK SHUN - I'M LEAVING BABY
TTITLE2=FAT LARRYS BAND - HOW GOOD IS LOVE
TTITLE3=ISLEY BROTHERS - LET ME DOWN EASY
TTITLE4=AVERAGE WHITE BAND - A LOVE OF YOUR OWN
TTITLE5=FREDIE JACKSON - ROCK ME TONIGHT
TTITLE6=BAR KAYS - RUNNING IN AND OUT OF ROY LITE
TTITLE7=CHAMPAIGN - HOW ABOUT US
TTITLE8=GEORGE DUKE and STANLEY CLARKE - SWEET BABY
TTITLE9=BLOODSTONE - GO ON AND CRY
TTITLE10=DENIECE WILLIANS - IT'S GONNA TAKE A MIRACLE
TTITLE11=TYRONE DAVIS - IN THE MOOD
TTITLE12=QUEN - COOL CAT
TTITLE13=ROY AYERS - AND DON'T SAY NO
EXTD=
EXTT0=
EXTT1=
EXTT2=
EXTT3=
EXTT4=
EXTT5=
EXTT6=
EXTT7=
EXTT8=
EXTT9=
EXTT10=
EXTT11=
EXTT12=
EXTT13=
PLAYORDER=
